<svg xmlns="http://www.w3.org/2000/svg" viewBox="0 0 574.8 128" width="574.7999877929688" height="128"><defs><style>.cls-1{fill:#42e1b7;}.cls-2{fill:#48e2ba;}.cls-3{fill:#48e2b9;}.cls-4{fill:#47e2b9;}.cls-5{fill:#4ae2bb;}.cls-6{fill:#4ce3bb;}.cls-7{fill:#49e2ba;}.cls-8{fill:#43e1b8;}.cls-9{fill:#4de3bc;}.cls-10{fill:#44e2b8;}</style></defs><title>Recurso 1</title><g id="Capa_2" data-name="Capa 2"><g id="Capa_1-2" data-name="Capa 1"><path class="cls-1 svg-elem-1" d="M118,0c7.5,3.16,10.16,8.86,10.1,16.88q-.36,46.86,0,93.72c.06,8.1-2.28,14.17-10.09,17.4H9l-9-8V9L8,0ZM46.83,71c8.15,0,15.62.27,23.06-.06,12-.53,19.64-8.45,20-20.05S83.31,31,71.51,30c-9.26-.8-18.61-.57-27.93-.69-4.08,0-5.37,2.48-5.36,6.22.05,19.65,0,39.31,0,59,0,3.08.64,6,4.39,6s4.22-3.1,4.21-6.16C46.82,86.82,46.83,79.34,46.83,71Z"></path><path class="cls-2 svg-elem-2" d="M195.88,59.26c0,7.7,0,15.16,0,22.62,0,1.64.18,3.6-.62,4.83a6.06,6.06,0,0,1-4.22,2.6c-1.2,0-2.84-1.57-3.54-2.85s-.42-2.91-.42-4.4q0-29.75,0-59.49c0-6.94.68-7.69,7.84-7.56,9.81.18,19.72-.27,29.37,1.08,11.39,1.6,17.06,9.93,16.71,21.8-.32,10.79-6.89,18.67-17.89,20C214.37,59,205.51,58.83,195.88,59.26Zm.2-8.34c8.77,0,17.06.47,25.27-.14,6.69-.5,10.57-5.71,10.87-12.71.36-8.55-2.6-13.92-9.85-14.91-8.59-1.17-17.36-1-26.29-1.47Z"></path><path class="cls-2 svg-elem-3" d="M248.94,62.94c-.08-21.41,17.66-31.13,34.47-24.16,9.86,4.09,13.23,12.79,13.9,22.92,1.25,18.92-13.16,31.68-31,27.27C255.63,86.31,248.89,76.24,248.94,62.94Zm8.54-1.23c.29,3.65.26,6,.69,8.27,1.49,7.91,6.43,12.19,14.38,12.71A14.24,14.24,0,0,0,287.48,72a29.64,29.64,0,0,0-.57-19.06c-2.27-6-6.91-9-13.5-9.09-6.85-.09-11.91,2.9-14.07,8.95C258.19,56,257.91,59.55,257.48,61.71Z"></path><path class="cls-3 svg-elem-4" d="M419.06,63.33C419,45.7,430.45,35.06,447.58,37c11.3,1.25,18.92,9.69,19.92,24.31,1.44,21-13.91,31.8-31,27.63C426,86.34,419.14,76.24,419.06,63.33Zm8.32-.9c.68,3.83.92,7.18,1.9,10.31,2,6.39,7.14,9.88,14,10s12-3.36,14.14-9.73a28.88,28.88,0,0,0-.21-20c-2.26-5.91-6.62-8.93-12.94-9.14-7.15-.24-11.91,2.31-14.34,8.43C428.57,55.62,428.13,59.29,427.38,62.43Z"></path><path class="cls-3 svg-elem-5" d="M550,36.6c14.7-.1,24.67,10.6,24.77,26.58.11,15.5-10,26.58-24.28,26.66S526.2,79.18,526.06,63.42,535.7,36.69,550,36.6ZM534.41,63.06c.67,3.52,1,6.86,2,10,2.06,6.28,7.46,9.8,14.16,9.71s12.63-3.55,13.76-10.06a55.11,55.11,0,0,0-.12-19c-1.21-6.55-6.54-9.67-13.27-9.82-7.22-.16-12.06,2.7-14.38,9.17C535.39,56.25,535.08,59.77,534.41,63.06Z"></path><path class="cls-4 svg-elem-6" d="M390.76,37.93c.13-2.14.19-3.62.32-5.09,1.1-12,10.68-19.61,22.58-17.79,1.19.19,3.13,1.63,3.07,2.36-.1,1.31-1.28,2.7-2.35,3.71-.62.58-1.87.53-2.86.67C401.77,23.25,399,27,400.14,37.94c3.34,0,6.83-.38,10.17.16,1.63.26,3,2.21,4.47,3.4-1.45,1.08-2.79,2.86-4.37,3.09-3.23.49-6.59.15-10.45.15-.11,2.15-.29,3.91-.29,5.66,0,10.16,0,20.33,0,30.49a37.9,37.9,0,0,1-.1,4c-.31,2.86-1.88,5.18-4.77,4.36-1.59-.46-3.57-3.1-3.62-4.8C390.83,73.28,391,62.12,391,51v-6.2c-2.27,0-4.34.45-6.06-.13s-3.18-2.16-4.74-3.31c1.55-1.13,2.95-2.66,4.69-3.26S388.45,37.93,390.76,37.93Z"></path><path class="cls-5 svg-elem-7" d="M363.06,44.76c0,10.47-.24,20.26.1,30,.17,4.59,3.54,6.6,8,7.56,2.77.61,8.15-.81,7.24,4.38-.76,4.3-5.17,2.9-8.4,2.46-11.23-1.53-15.63-6.38-15.83-17.87-.15-8.62,0-17.24,0-26.57-2.4,0-4.51.48-6.21-.13s-3-2.32-4.48-3.55c1.46-1,2.8-2.5,4.44-3s3.6-.11,6.24-.11V27.42c0-3,.79-5.41,4.33-5.45s4.43,2.34,4.44,5.34c0,3.3,0,6.61,0,10.62,3.81,0,7.29-.31,10.66.13,1.57.21,3,1.88,4.41,2.89-1.43,1.27-2.71,3.35-4.32,3.63C370.41,45.16,367,44.76,363.06,44.76Z"></path><path class="cls-6 svg-elem-8" d="M489,52.21c0,10.31-.05,20.61,0,30.92,0,3.3-.45,6.41-4.46,6.35-3.57,0-4.36-2.92-4.36-6.07q0-31.42,0-62.84c0-3.1.66-6,4.31-6.08,4-.06,4.53,3,4.51,6.3C488.92,31.27,489,41.74,489,52.21Z"></path><path class="cls-7 svg-elem-9" d="M319.25,44.87c4.06-5,8.93-7.77,14.87-7.78,1.89,0,5,1.21,5.43,2.58,1,3-1.53,4.26-4.31,4.63-1,.13-2,.36-2.94.5-9,1.27-13.28,5.91-13.45,14.89-.14,7.81-.05,15.63,0,23.44,0,3.21-.39,6.45-4.47,6.34S310,86.15,310,82.93c0-13,0-25.93,0-38.89,0-3.2-.35-6.85,4.22-7,4.36-.14,4.12,3.44,4.43,6.4A7.69,7.69,0,0,0,319.25,44.87Z"></path><path class="cls-8 svg-elem-10" d="M513.22,63.33c0,7,0,14,0,20.92,0,2.8-.63,5-4,5-3.24,0-4.26-1.9-4.26-4.84q0-21.18,0-42.35c0-2.85.94-4.93,4.15-5,3.39-.13,4.13,2.1,4.13,4.9Z"></path><path class="cls-9 svg-elem-11" d="M508.11,26.74c-1.55-2.13-4.06-4.1-4.42-6.42-.51-3.14,2.18-5.07,5.38-5.12,3.47-.06,6.12,1.95,5.6,5.38-.34,2.2-2.8,4.06-4.3,6.08Z"></path><path class="cls-10 svg-elem-12" d="M47,64.49V35.7c8.89.61,17.65.61,26.18,2,6,1,8.34,5.9,8.18,13.06-.16,7-2.8,11.5-9.13,12.36C64.1,64.25,55.79,64.08,47,64.49Z"></path></g></g></svg>